<svg xmlns="http://www.w3.org/2000/svg" xmlns:xlink="http://www.w3.org/1999/xlink" width="480" zoomAndPan="magnify" viewBox="0 0 360 359.999987" height="480" preserveAspectRatio="xMidYMid meet" version="1.0"><rect x="-36" width="432" fill="#ffffff" y="-35.999999" height="431.999984" fill-opacity="1"/><rect x="-36" width="432" fill="#ffffff" y="-35.999999" height="431.999984" fill-opacity="1"/><path fill="#000000" d="M 325.132812 83.769531 L 195.890625 11.09375 C 186.085938 5.601562 173.914062 5.601562 164.109375 11.09375 L 34.867188 83.769531 C 24.976562 89.316406 18.828125 99.726562 18.828125 110.882812 L 18.828125 256.238281 C 18.828125 267.394531 24.976562 277.800781 34.867188 283.351562 L 164.109375 356.027344 C 169.027344 358.789062 174.515625 360.167969 180 360.167969 C 185.484375 360.167969 190.972656 358.789062 195.890625 356.027344 L 325.132812 283.351562 C 335.023438 277.800781 341.171875 267.394531 341.171875 256.238281 L 341.171875 110.882812 C 341.171875 99.726562 335.023438 89.316406 325.132812 83.769531 Z M 180 275.703125 C 129.214844 275.703125 87.902344 234.371094 87.902344 183.558594 C 87.902344 132.75 129.214844 91.417969 180 91.417969 C 209.019531 91.417969 235.820312 104.882812 253.238281 127.832031 L 219.601562 147.296875 C 209.5 136.230469 195.140625 129.808594 180 129.808594 C 150.378906 129.808594 126.277344 153.925781 126.277344 183.558594 C 126.277344 213.195312 150.378906 237.308594 180 237.308594 C 195.140625 237.308594 209.5 230.890625 219.601562 219.824219 L 253.238281 239.289062 C 235.820312 262.234375 209.019531 275.703125 180 275.703125 Z M 272.097656 191.238281 L 256.746094 191.238281 L 256.746094 206.597656 L 241.398438 206.597656 L 241.398438 191.238281 L 226.046875 191.238281 L 226.046875 175.882812 L 241.398438 175.882812 L 241.398438 160.523438 L 256.746094 160.523438 L 256.746094 175.882812 L 272.097656 175.882812 Z M 325.820312 191.238281 L 310.472656 191.238281 L 310.472656 206.597656 L 295.121094 206.597656 L 295.121094 191.238281 L 279.773438 191.238281 L 279.773438 175.882812 L 295.121094 175.882812 L 295.121094 160.523438 L 310.472656 160.523438 L 310.472656 175.882812 L 325.820312 175.882812 Z M 325.820312 191.238281 " fill-opacity="1" fill-rule="nonzero"/></svg>