<svg xmlns="http://www.w3.org/2000/svg" xmlns:xlink="http://www.w3.org/1999/xlink" width="480" zoomAndPan="magnify" viewBox="0 0 360 359.999987" height="480" preserveAspectRatio="xMidYMid meet" version="1.0"><defs><clipPath id="1c7a2accdb"><path d="M 14.789062 7.394531 L 359.789062 7.394531 L 359.789062 352.394531 L 14.789062 352.394531 Z M 14.789062 7.394531 " clip-rule="nonzero"/></clipPath></defs><rect x="-36" width="432" fill="#ffffff" y="-35.999999" height="431.999984" fill-opacity="1"/><rect x="-36" width="432" fill="#ffffff" y="-35.999999" height="431.999984" fill-opacity="1"/><g clip-path="url(#1c7a2accdb)"><path fill="#040606" d="M 348.289062 335.144531 C 348.289062 338.3125 345.703125 340.894531 342.539062 340.894531 L 147.039062 340.894531 C 143.871094 340.894531 141.289062 338.3125 141.289062 335.144531 L 141.289062 208.644531 C 141.289062 205.476562 143.871094 202.894531 147.039062 202.894531 L 342.539062 202.894531 C 345.703125 202.894531 348.289062 205.476562 348.289062 208.644531 Z M 26.289062 266.144531 L 26.289062 215.066406 C 46.074219 228.902344 88.480469 236.136719 129.789062 237.238281 L 129.789062 294.667969 C 65.550781 292.917969 26.289062 277.171875 26.289062 266.144531 Z M 26.289062 140.207031 C 47.421875 154.984375 94.546875 162.644531 141.289062 162.644531 C 188.027344 162.644531 235.175781 154.984375 256.289062 140.207031 L 256.289062 191.394531 L 147.039062 191.394531 C 137.515625 191.394531 129.789062 199.121094 129.789062 208.644531 L 129.789062 225.691406 C 65.550781 223.941406 26.289062 208.171875 26.289062 197.144531 Z M 26.289062 65.457031 C 47.421875 80.234375 94.546875 87.894531 141.289062 87.894531 C 188.027344 87.894531 235.175781 80.234375 256.289062 65.457031 L 256.289062 122.394531 C 256.289062 134.117188 211.5 151.144531 141.289062 151.144531 C 71.097656 151.144531 26.289062 134.117188 26.289062 122.394531 Z M 141.289062 18.894531 C 211.5 18.894531 256.289062 35.917969 256.289062 47.644531 C 256.289062 59.367188 211.5 76.394531 141.289062 76.394531 C 71.097656 76.394531 26.289062 59.367188 26.289062 47.644531 C 26.289062 35.917969 71.097656 18.894531 141.289062 18.894531 Z M 342.539062 191.394531 L 267.789062 191.394531 L 267.789062 47.644531 C 267.789062 21.230469 204.15625 7.394531 141.289062 7.394531 C 78.417969 7.394531 14.789062 21.230469 14.789062 47.644531 L 14.789062 266.144531 C 14.789062 290.671875 71.726562 304.640625 129.789062 306.214844 L 129.789062 335.144531 C 129.789062 344.667969 137.515625 352.394531 147.039062 352.394531 L 342.539062 352.394531 C 352.0625 352.394531 359.789062 344.667969 359.789062 335.144531 L 359.789062 208.644531 C 359.789062 199.121094 352.0625 191.394531 342.539062 191.394531 " fill-opacity="1" fill-rule="nonzero"/></g><path fill="#040606" d="M 254.601562 290.828125 C 252.355469 288.582031 248.71875 288.582031 246.472656 290.828125 C 244.226562 293.074219 244.226562 296.714844 246.472656 298.960938 L 247.730469 300.21875 C 246.785156 300.464844 245.796875 300.644531 244.789062 300.644531 C 238.453125 300.644531 233.289062 295.476562 233.289062 289.144531 L 233.289062 254.644531 C 233.289062 248.308594 238.453125 243.144531 244.789062 243.144531 C 251.121094 243.144531 256.289062 248.308594 256.289062 254.644531 L 256.289062 289.144531 C 256.289062 290.15625 256.109375 291.144531 255.859375 292.085938 Z M 244.789062 231.644531 C 232.097656 231.644531 221.789062 241.953125 221.789062 254.644531 L 221.789062 289.144531 C 221.789062 301.835938 232.097656 312.144531 244.789062 312.144531 C 249.03125 312.144531 252.984375 310.910156 256.398438 308.886719 L 257.972656 310.460938 C 259.09375 311.582031 260.554688 312.144531 262.039062 312.144531 C 263.519531 312.144531 264.980469 311.582031 266.101562 310.460938 C 268.347656 308.214844 268.347656 304.574219 266.101562 302.328125 L 264.53125 300.757812 C 266.550781 297.34375 267.789062 293.390625 267.789062 289.144531 L 267.789062 254.644531 C 267.789062 241.953125 257.476562 231.644531 244.789062 231.644531 " fill-opacity="1" fill-rule="nonzero"/><path fill="#040606" d="M 187.289062 243.144531 C 193.621094 243.144531 198.789062 248.308594 198.789062 254.644531 C 198.789062 257.8125 201.371094 260.394531 204.539062 260.394531 C 207.703125 260.394531 210.289062 257.8125 210.289062 254.644531 C 210.289062 241.953125 199.976562 231.644531 187.289062 231.644531 C 174.597656 231.644531 164.289062 241.953125 164.289062 254.644531 C 164.289062 267.335938 174.597656 277.644531 187.289062 277.644531 C 193.621094 277.644531 198.789062 282.808594 198.789062 289.144531 C 198.789062 295.476562 193.621094 300.644531 187.289062 300.644531 C 180.953125 300.644531 175.789062 295.476562 175.789062 289.144531 C 175.789062 285.976562 173.203125 283.394531 170.039062 283.394531 C 166.871094 283.394531 164.289062 285.976562 164.289062 289.144531 C 164.289062 301.835938 174.597656 312.144531 187.289062 312.144531 C 199.976562 312.144531 210.289062 301.835938 210.289062 289.144531 C 210.289062 276.453125 199.976562 266.144531 187.289062 266.144531 C 180.953125 266.144531 175.789062 260.976562 175.789062 254.644531 C 175.789062 248.308594 180.953125 243.144531 187.289062 243.144531 " fill-opacity="1" fill-rule="nonzero"/><path fill="#040606" d="M 319.539062 300.644531 L 290.789062 300.644531 L 290.789062 237.394531 C 290.789062 234.226562 288.203125 231.644531 285.039062 231.644531 C 281.871094 231.644531 279.289062 234.226562 279.289062 237.394531 L 279.289062 306.394531 C 279.289062 309.5625 281.871094 312.144531 285.039062 312.144531 L 319.539062 312.144531 C 322.703125 312.144531 325.289062 309.5625 325.289062 306.394531 C 325.289062 303.226562 322.703125 300.644531 319.539062 300.644531 " fill-opacity="1" fill-rule="nonzero"/></svg>