<svg xmlns="http://www.w3.org/2000/svg" xmlns:xlink="http://www.w3.org/1999/xlink" width="480" zoomAndPan="magnify" viewBox="0 0 360 359.999987" height="480" preserveAspectRatio="xMidYMid meet" version="1.0"><defs><clipPath id="7de4f07740"><path d="M 130 64 L 231 64 L 231 297.691406 L 130 297.691406 Z M 130 64 " clip-rule="nonzero"/></clipPath></defs><rect x="-36" width="432" fill="#ffffff" y="-35.999999" height="431.999984" fill-opacity="1"/><rect x="-36" width="432" fill="#ffffff" y="-35.999999" height="431.999984" fill-opacity="1"/><path fill="#000000" d="M 97.070312 264.523438 C 92.09375 264.523438 88.773438 262.863281 85.453125 259.546875 L 19.046875 193.207031 C 12.40625 186.574219 12.40625 176.625 19.046875 169.992188 L 85.453125 103.652344 C 92.09375 97.019531 102.050781 97.019531 108.691406 103.652344 C 115.332031 110.285156 115.332031 120.238281 108.691406 126.871094 L 53.910156 181.597656 L 108.691406 236.328125 C 115.332031 242.960938 115.332031 252.914062 108.691406 259.546875 C 105.371094 262.863281 102.050781 264.523438 97.070312 264.523438 Z M 97.070312 264.523438 " fill-opacity="1" fill-rule="nonzero"/><path fill="#000000" d="M 263.082031 264.523438 C 258.101562 264.523438 254.78125 262.863281 251.460938 259.546875 C 244.820312 252.914062 244.820312 242.960938 251.460938 236.328125 L 306.242188 181.597656 L 251.460938 126.871094 C 244.820312 120.238281 244.820312 110.285156 251.460938 103.652344 C 258.101562 97.019531 268.0625 97.019531 274.703125 103.652344 L 341.105469 169.992188 C 347.746094 176.625 347.746094 186.574219 341.105469 193.207031 L 274.703125 259.546875 C 271.382812 262.863281 268.0625 264.523438 263.082031 264.523438 Z M 263.082031 264.523438 " fill-opacity="1" fill-rule="nonzero"/><g clip-path="url(#7de4f07740)"><path fill="#000000" d="M 146.875 297.691406 C 145.214844 297.691406 143.554688 297.691406 141.894531 296.03125 C 133.59375 292.714844 128.613281 284.421875 131.933594 274.472656 L 198.335938 75.457031 C 201.65625 67.167969 209.957031 62.191406 219.917969 65.507812 C 228.21875 68.824219 233.199219 77.117188 229.878906 87.066406 L 163.476562 286.082031 C 160.15625 292.714844 153.515625 297.691406 146.875 297.691406 Z M 146.875 297.691406 " fill-opacity="1" fill-rule="nonzero"/></g></svg>