<svg xmlns="http://www.w3.org/2000/svg" xmlns:xlink="http://www.w3.org/1999/xlink" width="480" zoomAndPan="magnify" viewBox="0 0 360 359.999987" height="480" preserveAspectRatio="xMidYMid meet" version="1.0"><rect x="-36" width="432" fill="#ffffff" y="-35.999999" height="431.999984" fill-opacity="1"/><rect x="-36" width="432" fill="#ffffff" y="-35.999999" height="431.999984" fill-opacity="1"/><path fill="#000000" d="M 139.289062 134.042969 C 86.351562 137.207031 71.320312 149.046875 68.492188 158.015625 C 66.960938 201.015625 265.882812 210.726562 280.585938 160.390625 C 281.121094 149.785156 270.730469 147.441406 258.820312 144.003906 C 264.425781 148.472656 268.515625 152.527344 266.53125 159.597656 C 252.382812 192.472656 55.324219 184.367188 85.722656 150.519531 C 91.109375 144.355469 113.0625 138.242188 139.289062 134.042969 Z M 139.289062 134.042969 " fill-opacity="1" fill-rule="nonzero"/><path fill="#000000" d="M 160.9375 0.0351562 C 239.894531 66.664062 115.089844 114.210938 181.535156 159.992188 C 146.046875 97.050781 271.644531 73.023438 160.9375 0.0351562 Z M 160.9375 0.0351562 " fill-opacity="0.992" fill-rule="nonzero"/><path fill="#000000" d="M 188.941406 135.191406 C 206.210938 140.902344 215.171875 142.265625 214.914062 150.605469 C 215.664062 166.042969 121.433594 172.921875 89.890625 155.792969 C 93.226562 177.242188 255.015625 183.925781 256.746094 153.886719 C 256.691406 149.722656 243.882812 132.300781 188.941406 135.191406 Z M 188.941406 135.191406 " fill-opacity="0.992" fill-rule="nonzero"/><path fill="#000000" d="M 147.214844 15.042969 C 198.644531 75.796875 103.585938 108.703125 157.808594 145.78125 C 123.582031 107.898438 224.171875 67.285156 147.214844 15.042969 Z M 147.214844 15.042969 " fill-opacity="0.992" fill-rule="nonzero"/><path fill="#000000" d="M 301.984375 168.074219 C 274.636719 165.859375 271.785156 190.480469 259.855469 230.238281 C 238.171875 289.972656 108.851562 329.335938 70.507812 183.320312 C 89.824219 332.816406 236.820312 314.636719 272.609375 233.25 C 277.027344 224.296875 281.820312 197.671875 288.523438 199.089844 C 312.820312 204.234375 283.636719 250.898438 262.542969 261.832031 C 298.320312 259.6875 349.355469 178.074219 301.984375 168.074219 Z M 301.984375 168.074219 " fill-opacity="1" fill-rule="nonzero"/><path fill="#000000" d="M 91.449219 279.253906 C 73.046875 282.375 58.242188 285.421875 55.050781 291.988281 C 36.058594 331.09375 302.273438 333.238281 294.863281 292.082031 C 293.613281 285.136719 276.929688 281.070312 254.792969 279.214844 C 257.578125 280.574219 269.875 285.988281 268.136719 291.90625 C 262.1875 312.164062 88.886719 315.765625 79.761719 291.988281 C 78.5 288.699219 82.414062 284.242188 91.449219 279.253906 Z M 91.449219 279.253906 " fill-opacity="1" fill-rule="nonzero"/><path fill="#000000" d="M 122.882812 326.503906 C 111.441406 328.445312 102.238281 330.339844 100.257812 334.421875 C 88.445312 358.734375 253.957031 360.066406 249.351562 334.480469 C 248.574219 330.164062 238.199219 327.636719 224.4375 326.480469 C 226.167969 327.328125 233.8125 330.691406 232.734375 334.371094 C 229.035156 346.96875 121.292969 349.203125 115.621094 334.421875 C 114.835938 332.375 117.269531 329.605469 122.882812 326.503906 Z M 122.882812 326.503906 " fill-opacity="1" fill-rule="nonzero"/></svg>